<svg width="220" height="45" viewBox="0 0 392 62" xmlns="http://www.w3.org/2000/svg"><g fill="none"><path d="M87.148 31.028c0 2.445 1.508 4.121 3.652 4.121 1.14 0 2.278-.402 3.483-1.408v-6.8A34.85 34.85 0 0 0 91 26.773c-2.645 0-3.852 1.776-3.852 4.255m12.596-7.839v15.946h-5.46v-1.106c-1.273 1.004-2.713 1.608-4.69 1.608-3.92 0-7.706-3.048-7.706-8.71.135-5.124 3.116-8.542 8.142-8.542 3.081 0 4.79.235 9.714.804m8.243 7.705c0 2.58 1.34 4.254 3.887 4.254.536 0 1.606-.066 3.282-.233v-7.873c-1.173-.17-2.345-.267-3.116-.267-2.881 0-4.053 1.707-4.053 4.119zm12.596 7.972c-5.527.636-7.303.67-9.916.67-4.02 0-7.905-2.78-7.905-8.642.1-5.09 2.98-8.508 8.374-8.508 1.24 0 2.747.133 4.02.3V15.35h5.427v23.516zm31.425-10.217v10.485h-5.426v-8.877c0-2.21-1.072-2.948-2.882-2.948-.804 0-1.708.067-2.713.268.067.57.101 1.072.101 1.776v9.781h-5.428v-8.877c0-2.21-1.072-2.948-2.848-2.948-.769 0-1.606.035-2.646.133v11.692h-5.427V23.256c3.116-.468 6.633-.871 9.581-.871 1.475 0 2.814.268 3.854.837 2.412-.502 4.89-.837 7.033-.837 3.988 0 6.801 1.875 6.801 6.264m9.216 10.486h-5.427V22.888h5.427v16.247zm-6.03-21.44c0-1.91 1.474-3.283 3.317-3.283 1.776 0 3.282 1.373 3.282 3.283 0 1.842-1.506 3.216-3.282 3.216-1.843 0-3.316-1.374-3.316-3.216zm26.934 10.954v10.485h-5.426v-8.877c0-2.041-1.207-2.948-2.747-2.948-.872 0-1.943.067-3.316.168v11.657h-5.428V23.19c3.619-.436 7.37-.804 10.284-.804 3.987 0 6.633 2.513 6.633 6.264m9.215 10.485h-5.427V22.888h5.427v16.247zm-6.03-21.44c0-1.91 1.474-3.283 3.318-3.283 1.774 0 3.282 1.373 3.282 3.283 0 1.842-1.508 3.216-3.282 3.216-1.844 0-3.318-1.374-3.318-3.216zm9.983 16.381c2.78 1.005 5.092 1.44 6.466 1.44 1.34 0 2.277-.301 2.277-1.004 0-1.039-1.841-1.14-3.684-1.541-3.752-.771-5.661-2.011-5.661-4.991 0-3.55 2.746-5.561 7.236-5.561 2.344 0 5.192.536 7 1.172l-1.038 4.02c-2.446-.738-4.59-1.139-5.93-1.139-1.24 0-1.943.401-1.943 1.139 0 1.038 1.441 1.072 3.619 1.542 3.45.703 5.628 1.807 5.628 4.99 0 3.685-2.914 5.494-7.371 5.494-2.11 0-4.856-.436-7.637-1.441l1.038-4.12zm29.884 4.892c-1.875.503-3.047.67-5.091.67-4.053 0-6.297-2.446-6.297-6.9v-4.993h-3.116v-4.858h3.116v-5.528h5.425v5.528h4.992v4.858h-4.992v4.456c0 1.607.637 2.578 2.312 2.578.803 0 1.675-.066 3.15-.268l.502 4.457zm13.87-11.257c-1.842 0-3.718.067-5.56.202v11.221h-5.427V23.491c3.582-.637 7.737-1.04 10.988-1.04v5.26zm6.533 3.317c0 2.445 1.51 4.121 3.652 4.121 1.14 0 2.278-.402 3.484-1.408v-6.8a34.86 34.86 0 0 0-3.282-.168c-2.647 0-3.854 1.776-3.854 4.255m12.596-7.839v15.946h-5.46v-1.106c-1.273 1.004-2.713 1.608-4.69 1.608-3.919 0-7.704-3.048-7.704-8.71.133-5.124 3.116-8.542 8.14-8.542 3.082 0 4.792.235 9.714.804m8.244 7.705c0 2.58 1.34 4.254 3.887 4.254.536 0 1.607-.066 3.283-.233v-7.873c-1.174-.17-2.346-.267-3.116-.267-2.88 0-4.054 1.707-4.054 4.119zm12.596 7.972c-5.525.636-7.301.67-9.914.67-4.022 0-7.907-2.78-7.907-8.642.1-5.09 2.981-8.508 8.375-8.508 1.24 0 2.746.133 4.02.3V15.35h5.426v23.516zm16.317-7.938c0-2.412-1.675-4.022-4.02-4.022-2.343 0-4.019 1.61-4.019 4.022 0 2.477 1.676 4.12 4.019 4.12 2.345 0 4.02-1.643 4.02-4.12m5.193 0c0 5.258-3.753 8.777-9.213 8.777-5.428 0-9.212-3.519-9.212-8.777 0-5.226 3.784-8.676 9.212-8.676 5.46 0 9.213 3.45 9.213 8.676m14.005-3.217c-1.843 0-3.719.067-5.561.202v11.221h-5.427V23.491c3.584-.637 7.737-1.04 10.988-1.04v5.26zm6.501 1.743h6.699c-.1-1.808-1.372-2.948-3.248-2.948-1.843 0-3.083 1.105-3.45 2.948m11.39.234c0 1.306-.07 1.843-.303 3.082h-10.888c.57 1.506 1.978 2.445 4.054 2.445 1.508 0 3.114-.233 5.829-.804l.704 3.953c-2.245.736-4.488 1.274-6.633 1.274-6.064 0-9.412-3.686-9.412-8.644 0-5.226 3.617-8.61 8.542-8.61 4.723 0 8.074 2.915 8.107 7.304m3.049 4.388c2.78 1.005 5.092 1.44 6.466 1.44 1.34 0 2.277-.301 2.277-1.004 0-1.039-1.841-1.14-3.684-1.541-3.753-.771-5.661-2.011-5.661-4.991 0-3.55 2.746-5.561 7.236-5.561 2.344 0 5.192.536 7 1.172l-1.038 4.02c-2.446-.738-4.59-1.139-5.93-1.139-1.24 0-1.943.401-1.943 1.139 0 1.038 1.441 1.072 3.619 1.542 3.45.703 5.628 1.807 5.628 4.99 0 3.685-2.915 5.494-7.371 5.494-2.11 0-4.856-.436-7.637-1.441l1.038-4.12z" fill="#0E75A2"/><path d="M352.695 26.606c0-.955.787-1.692 1.759-1.692.97 0 1.76.737 1.76 1.692 0 .972-.79 1.708-1.76 1.708-.972 0-1.759-.736-1.759-1.708m13.703-1.826c-.954-.168-1.674-.285-2.26-.285-1.458 0-2.312.872-2.312 2.128 0 1.256.888 2.06 2.211 2.06.536 0 1.492-.117 2.412-.303l.284 2.062c-.904.301-2.027.502-2.897.502-2.73 0-4.639-1.709-4.639-4.356 0-2.628 1.893-4.32 4.69-4.32.805 0 1.942.151 2.846.452l-.335 2.06zm7.723 1.81c0-1.206-.837-2.01-2.01-2.01-1.173 0-2.01.804-2.01 2.01 0 1.24.837 2.06 2.01 2.06 1.173 0 2.01-.82 2.01-2.06m2.596 0c0 2.628-1.876 4.387-4.605 4.387-2.715 0-4.607-1.759-4.607-4.388 0-2.613 1.892-4.337 4.607-4.337 2.73 0 4.605 1.724 4.605 4.337m15.143-1.139v5.243h-2.714v-4.439c0-1.105-.536-1.473-1.44-1.473-.403 0-.855.033-1.357.133.034.286.05.536.05.888v4.891h-2.713v-4.439c0-1.105-.536-1.473-1.424-1.473-.385 0-.804.016-1.321.067v5.845h-2.715v-7.939c1.557-.234 3.316-.436 4.79-.436.737 0 1.407.134 1.927.42 1.206-.252 2.444-.42 3.516-.42 1.994 0 3.4.938 3.4 3.132M44.96.318h-1.022c-8.214.001-26.44 7.51-26.44 26.812 0 .785.03 1.548.08 2.293.85-8.484 8.598-12.177 13.65-12.177h13.733v13.732h16.928V.318H44.96z" fill="#E62533"/><path fill="#0E75A2" d="M61.89 61.637H44.96v-30.66h16.93z"/><path d="M44.96 61.637h.288c9.882-5.09 16.64-15.392 16.64-27.273H44.962v27.273z" fill="#043750"/><path d="M31.23 44.709c-9.157 0-13.733-7.095-13.733-17.58C17.497 7.827 35.725.319 43.94.319H31.23C14.296.318.57 14.044.57 30.978c0 16.931 13.727 30.658 30.66 30.658 16.934 0 30.66-13.727 30.66-30.659H44.961c0 7.57-6.16 13.73-13.732 13.73" fill="#0E75A2"/><path d="M21.486 21.289C24.702 6.296 39.996.319 47.323.319h-3.385c-8.214 0-26.44 7.51-26.44 26.811 0 .786.03 1.548.08 2.294.352-3.503 1.88-6.188 3.908-8.135" fill="#B11922"/></g></svg>