<svg width="25" height="22" viewBox="0 0 25 22" xmlns="http://www.w3.org/2000/svg"><title>Shape</title><path d="M22.83 2.228c-2.857-2.833-7.39-2.916-10.303-.22C11.154.687 9.396 0 7.445 0 5.467 0 3.6.77 2.17 2.172A7.405 7.405 0 0 0 0 7.453c0 2.008.77 3.878 2.17 5.28l.55.55L12.5 22l9.753-8.607.577-.578C24.258 11.385 25 9.543 25 7.508c0-2.008-.77-3.878-2.17-5.28zm.17 5.1c0 1.4-.586 2.829-1.562 3.845l-.474.494L12.514 19l-8.422-7.333-.502-.494C2.586 10.157 2 8.838 2 7.383a5.23 5.23 0 0 1 1.59-3.79 5.36 5.36 0 0 1 3.792-1.566c1.423 0 2.761.55 3.793 1.538l1.311 1.291 1.31-1.29C14.802 2.548 16.168 2 17.619 2c1.45 0 2.788.55 3.82 1.565C22.442 4.582 23 5.9 23 7.328z" fill="#41C66E" fill-rule="nonzero"/></svg>