<?xml version="1.0" encoding="utf-8"?>
<!-- Generator: Adobe Illustrator 23.0.2, SVG Export Plug-In . SVG Version: 6.00 Build 0)  -->
<svg version="1.1" id="Camada_1" xmlns="http://www.w3.org/2000/svg" xmlns:xlink="http://www.w3.org/1999/xlink" x="0px" y="0px"
	 viewBox="0 0 48 48" style="enable-background:new 0 0 48 48;" xml:space="preserve">
<style type="text/css">
	.st0{fill:#FFFFFF;}
</style>
<path class="st0" d="M14.63,0.01c0.35,0.08,0.71,0.11,1.03,0.24c0.89,0.35,1.84,0.64,2.65,1.14c4.72,2.89,9.41,5.84,14.11,8.76
	c0.59,0.37,0.97,0.85,0.89,1.57c-0.12,1.13-1.33,1.7-2.33,1.09c-1.56-0.95-3.1-1.93-4.65-2.89c-3.26-2.03-6.5-4.08-9.77-6.07
	c-2.64-1.6-6.01-0.74-7.61,1.87c-0.58,0.94-0.8,1.98-0.8,3.08c0.01,7.15,0,14.3,0,21.45c0,3,0,5.99,0,8.99c0,3.05,2,5.33,5.03,5.69
	c1.34,0.16,2.55-0.24,3.68-0.95c2.87-1.8,5.74-3.58,8.61-5.37c5.23-3.26,10.46-6.51,15.68-9.78c2.94-1.84,3.69-5.52,1.64-8.18
	c-0.38-0.5-0.89-0.92-1.4-1.3c-0.78-0.59-1.02-1.47-0.52-2.19c0.49-0.72,1.38-0.85,2.19-0.32c5.14,3.35,5.21,10.95,0.04,14.29
	c-4.74,3.06-9.57,5.99-14.35,8.98c-3.36,2.1-6.73,4.19-10.08,6.29c-1.23,0.77-2.52,1.36-3.98,1.51c-0.06,0.01-0.11,0.04-0.17,0.07
	c-0.56,0-1.12,0-1.69,0c-0.1-0.03-0.2-0.07-0.31-0.09c-4.17-0.58-7.3-4.07-7.38-8.27c-0.04-1.92-0.01-3.84-0.01-5.76
	c0-8.35,0-16.7,0-25.05c0-3.76,1.95-6.73,5.37-8.13c0.74-0.3,1.55-0.44,2.33-0.65C13.44,0.01,14.03,0.01,14.63,0.01z"/>
</svg>
